<?xml version="1.0" encoding="utf-8"?>
<!-- Generator: Adobe Illustrator 20.1.0, SVG Export Plug-In . SVG Version: 6.00 Build 0)  -->
<svg version="1.1" id="Layer_1" xmlns="http://www.w3.org/2000/svg" xmlns:xlink="http://www.w3.org/1999/xlink" x="0px" y="0px"
	 viewBox="0 0 249.8 249.8" style="enable-background:new 0 0 249.8 249.8;" xml:space="preserve">
<style type="text/css">
	.st0{fill:#FF6485;stroke:#FFFFFF;stroke-width:15;stroke-miterlimit:10;}
	.st1{fill:#FFFFFF;}
</style>
<g>
	<circle class="st0" cx="124.9" cy="124.9" r="109.9"/>
</g>
<g>
	<path class="st1" d="M57.2,167c0-28.2,0-56.1,0-84.3c0.4,0,0.8,0,1.3,0c13,0,26,0,38.9,0c4.3,0,8.5,0.4,12.6,1.9
		c7,2.5,11.6,7.1,13.2,14.5c1.1,5.5,0.9,11-2,16.1c-1.4,2.5-3.6,4.3-6.1,5.7c-0.4,0.3-0.9,0.5-1.4,0.8c1.4,0.8,2.7,1.3,3.9,2
		c4.3,2.5,7,6.3,8.1,11.1c2.3,9.4,0.3,17.8-6.6,24.9c-3.6,3.7-8.1,5.8-13.2,6.5c-3.6,0.5-7.2,0.8-10.8,0.8
		c-12.1,0.1-24.2,0.1-36.3,0.1C58.1,167,57.7,167,57.2,167z M76.7,130.1c0,7.5,0,14.8,0,22.3c6.8,0,13.4,0.1,20.1-0.1
		c1.6,0,3.4-0.4,4.9-0.9c3.4-1.1,5.5-3.5,6.4-7c0.6-2.4,0.8-4.9,0.1-7.3c-1.3-4.6-4.8-6.6-9.1-6.9c-7.4-0.4-14.8-0.3-22.2-0.3
		C76.9,130,76.8,130,76.7,130.1z M76.7,115.8c0.3,0.1,0.6,0.1,0.9,0.1c5.6,0,11.2,0.1,16.8,0c1.4,0,3-0.2,4.4-0.4
		c1.9-0.3,3.8-0.9,5.3-2.2c2.3-1.8,2.7-4.4,2.7-7.1c0-4.6-2-7.1-6.6-8.1c-1.9-0.4-3.9-0.7-5.8-0.8c-5.6,0-11.3,0-17,0
		c-0.2,0-0.3,0.1-0.6,0.1C76.7,103.5,76.7,109.6,76.7,115.8z"/>
	<path class="st1" d="M192.6,138.6c-14.5,0-29,0-43.7,0c0.1,2.9,0.6,5.6,2,8.1c2.3,4.2,6,6.2,10.6,6.8c2.8,0.3,5.5,0.2,8.1-0.8
		c2.3-0.9,4.2-2.3,5.4-4.5c0.6-1,1.2-1.3,2.3-1.3c4.4,0.1,8.9,0.1,13.2,0.1c0.4,0,0.8,0,1.3,0c-0.4,3.3-1.8,5.9-3.6,8.3
		c-3.7,4.9-8.3,8.4-14.2,10c-11.5,3-22.2,1.7-31.8-5.9c-4.9-3.9-7.5-9.1-8.5-15.2c-1.4-7.6-1.3-15.3,1.1-22.7
		c2.8-8.4,8.4-14.2,16.8-17.1c8.3-2.8,16.6-2.5,24.6,0.8c4.9,1.9,8.5,5.3,11.4,9.6c3,4.7,4.6,9.8,4.9,15.3
		C192.6,132.7,192.6,135.6,192.6,138.6z M176.3,128.2c-0.2-7.2-4.9-12.6-13.3-12.7c-8.5-0.2-12.8,5.5-13.6,12.7
		C158.4,128.2,167.2,128.2,176.3,128.2z"/>
	<path class="st1" d="M179.6,94.5c-11.3,0-22.5,0-33.8,0c0-2.8,0-5.5,0-8.3c11.2,0,22.5,0,33.8,0C179.6,89,179.6,91.8,179.6,94.5z"
		/>
</g>
</svg>
