<?xml version="1.0" encoding="utf-8"?>
<!-- Generator: Adobe Illustrator 20.1.0, SVG Export Plug-In . SVG Version: 6.00 Build 0)  -->
<svg version="1.1" id="Layer_1" xmlns="http://www.w3.org/2000/svg" xmlns:xlink="http://www.w3.org/1999/xlink" x="0px" y="0px"
	 viewBox="0 0 249.8 249.8" style="enable-background:new 0 0 249.8 249.8;" xml:space="preserve">
<style type="text/css">
	.st0{fill:#FF6485;stroke:#FFFFFF;stroke-width:10;stroke-miterlimit:10;}
	.st1{fill:#A09F9F;stroke:url(#SVGID_1_);stroke-width:9;stroke-miterlimit:10;}
	.st2{fill:#FFFFFF;}
	.st3{fill:none;stroke:#F16485;stroke-width:5;stroke-miterlimit:10;}
	.st4{fill:#F16485;stroke:#F16485;stroke-width:1.5509;stroke-miterlimit:10;}
	.st5{fill:#F16485;stroke:#FFFFFF;stroke-width:6;stroke-miterlimit:10;}
	.st6{fill:#F16485;}
	.st7{fill:none;stroke:#F16485;stroke-width:3;stroke-miterlimit:10;}
</style>
<g>
	<circle class="st0" cx="124.9" cy="124.9" r="117.6"/>
</g>
<g>
	
		<linearGradient id="SVGID_1_" gradientUnits="userSpaceOnUse" x1="-1124.3306" y1="702.75" x2="-879.8409" y2="702.75" gradientTransform="matrix(-1 0 0 1 -1244.6599 -518.05)">
		<stop  offset="0" style="stop-color:#FFFFFF"/>
		<stop  offset="0.9951" style="stop-color:#F16485"/>
	</linearGradient>
	<circle class="st1" cx="-242.7" cy="184.7" r="117.6"/>
</g>
<path class="st2" d="M-204.4,242.7H-285c-10.9,0-19.9-9-19.9-19.9v-75.7c0-10.9,9-19.9,19.9-19.9h80.2c10.9,0,19.9,9,19.9,19.9v75.7
	C-184.9,233.7-193.6,242.7-204.4,242.7z"/>
<line class="st3" x1="-304.5" y1="159.9" x2="-184.9" y2="159.9"/>
<circle class="st4" cx="-244.9" cy="186.9" r="31.9"/>
<circle class="st5" cx="-244.9" cy="186.9" r="22.5"/>
<rect x="-207.4" y="138.1" class="st6" width="14.6" height="14.6"/>
<line class="st7" x1="-291.4" y1="129.5" x2="-291.4" y2="147.1"/>
<line class="st7" x1="-286.1" y1="127.6" x2="-286.1" y2="147.1"/>
<line class="st7" x1="-280.5" y1="127.6" x2="-280.5" y2="147.1"/>
<g>
	<path class="st2" d="M44.1,175.2c0-33.6,0-67,0-100.6c0.5,0,1,0,1.5,0c15.5,0,31,0,46.4,0c5.1,0,10.1,0.5,15,2.3
		c8.3,3,13.8,8.5,15.7,17.3c1.3,6.6,1.1,13.1-2.4,19.2c-1.7,3-4.3,5.1-7.3,6.8c-0.5,0.3-1.1,0.6-1.7,1c1.7,0.9,3.2,1.6,4.6,2.4
		c5.1,3,8.3,7.5,9.7,13.2c2.7,11.2,0.3,21.3-7.9,29.7c-4.3,4.4-9.7,6.9-15.8,7.7c-4.3,0.6-8.6,1-12.9,1c-14.4,0.1-28.9,0.1-43.3,0.1
		C45.1,175.2,44.7,175.2,44.1,175.2z M67.4,131.1c0,8.9,0,17.7,0,26.6c8.1,0,16,0.1,24-0.1c1.9,0,4-0.5,5.8-1.1
		c4.1-1.3,6.6-4.2,7.6-8.3c0.7-2.9,0.9-5.8,0.1-8.7c-1.5-5.5-5.7-7.9-10.8-8.2c-8.8-0.5-17.7-0.3-26.5-0.4
		C67.6,131,67.5,131,67.4,131.1z M67.4,114.1c0.4,0.1,0.7,0.1,1.1,0.1c6.7,0,13.4,0.1,20,0c1.7,0,3.6-0.2,5.2-0.5
		c2.3-0.3,4.5-1.1,6.3-2.6c2.7-2.2,3.2-5.2,3.2-8.5c0-5.5-2.4-8.5-7.9-9.7c-2.3-0.5-4.6-0.8-6.9-0.9c-6.7,0-13.5,0-20.3,0
		c-0.2,0-0.4,0.1-0.7,0.1C67.4,99.4,67.4,106.7,67.4,114.1z"/>
	<path class="st2" d="M205.6,141.3c-17.3,0-34.6,0-52.2,0c0.1,3.5,0.7,6.7,2.4,9.7c2.7,5,7.2,7.4,12.6,8.1c3.3,0.4,6.6,0.2,9.7-1
		c2.8-1.1,5-2.8,6.5-5.4c0.7-1.2,1.4-1.6,2.8-1.6c5.2,0.1,10.6,0.1,15.8,0.1c0.5,0,1,0,1.6,0c-0.5,3.9-2.2,7-4.3,9.9
		c-4.4,5.8-9.9,10-16.9,11.9c-13.7,3.6-26.5,2-38-7c-5.8-4.6-8.9-10.9-10.1-18.1c-1.7-9.1-1.5-18.3,1.3-27.1c3.3-10,10-17,20-20.4
		c9.9-3.4,19.8-3,29.4,0.9c5.8,2.3,10.1,6.3,13.6,11.4c3.6,5.6,5.5,11.7,5.8,18.3C205.7,134.3,205.6,137.7,205.6,141.3z
		 M186.2,128.9c-0.2-8.6-5.9-15-15.9-15.2c-10.1-0.2-15.3,6.6-16.2,15.2C164.8,128.9,175.4,128.9,186.2,128.9z"/>
	<path class="st2" d="M190.1,88.7c-13.5,0-26.9,0-40.3,0c0-3.3,0-6.6,0-9.9c13.4,0,26.8,0,40.3,0C190.1,82.1,190.1,85.4,190.1,88.7z
		"/>
</g>
</svg>
