<?xml version="1.0" encoding="utf-8"?>
<!-- Generator: Adobe Illustrator 20.1.0, SVG Export Plug-In . SVG Version: 6.00 Build 0)  -->
<svg version="1.1" id="Layer_1" xmlns="http://www.w3.org/2000/svg" xmlns:xlink="http://www.w3.org/1999/xlink" x="0px" y="0px"
	 viewBox="0 0 249.8 249.8" style="enable-background:new 0 0 249.8 249.8;" xml:space="preserve">
<style type="text/css">
	.st0{fill:#FF6485;stroke:#FFFFFF;stroke-width:10;stroke-miterlimit:10;}
	.st1{fill:#FFFFFF;}
</style>
<g>
	<circle class="st0" cx="124.9" cy="124.9" r="117.6"/>
</g>
<path class="st1" d="M181.1,104.6c-0.2-7-2.6-13.4-6.9-19.1c-0.9-1.2-0.5-3.2-0.6-4.9c-0.3-5.3-0.4-10.6-0.9-15.9
	c-0.3-2.9-2.5-4.1-5-3.1c-5.7,2.2-11.3,4.8-17,7c-1.9,0.7-4.1,1.4-6,1.1c-10.6-1.4-21.1-1.5-31.7,0.3c-1.6,0.3-3.6-0.5-5.3-1.2
	c-5.7-2.4-11.2-5.1-16.9-7.3c-3-1.2-5.6,0.1-5.9,3.6c-0.4,5.1-0.4,10.3-0.7,15.5c-0.1,1.9-0.2,4.1-1.3,5.6
	c-7.9,11.1-8.8,30.1-1.6,41.6c5.5,8.8,14.5,11.8,23.9,13.8c2.8,0.6,5.6,0.9,8.1,1.3c-2,3.3-3.8,6.4-5.7,9.5
	c-0.4,0.6-1.1,1.3-1.8,1.5c-8.4,2.2-14.3,1.8-19.8-5c-1.8-2.3-3.4-4.7-5.5-6.7c-3.1-3.1-6.9-4.4-12.1-2.6c2.1,2,4,3.5,5.5,5.3
	c2,2.3,4.1,4.5,5.4,7.2c5.7,11.8,11.2,15,24.3,13.4c0.7-0.1,1.3-0.2,2.4-0.4v19.3c0,0,9.4,3.9,22.4,3.9c8.7,0,22.1-3.5,22.7-3.7
	c0,0,0,0-0.1,0c0-7.5-0.1-14.7,0-21.8c0.2-7.4-0.5-14.4-7.8-19.5c4.6-0.9,8.3-1.5,12.1-2.4C175.3,136.5,181.8,124.8,181.1,104.6z"/>
</svg>
