<?xml version="1.0" encoding="utf-8"?>
<!-- Generator: Adobe Illustrator 20.1.0, SVG Export Plug-In . SVG Version: 6.00 Build 0)  -->
<svg version="1.1" id="Layer_1" xmlns="http://www.w3.org/2000/svg" xmlns:xlink="http://www.w3.org/1999/xlink" x="0px" y="0px"
	 viewBox="0 0 249.8 249.8" style="enable-background:new 0 0 249.8 249.8;" xml:space="preserve">
<style type="text/css">
	.st0{fill:#FF6485;stroke:#FFFFFF;stroke-width:10;stroke-miterlimit:10;}
	.st1{fill:#FFFFFF;}
</style>
<g>
	<circle class="st0" cx="124.9" cy="124.9" r="117.6"/>
</g>
<path class="st1" d="M116.4,145.9c-1,3.7-1.8,7.3-2.8,10.8c-1.7,6.8-3.1,13.8-6.8,20c-2.8,4.7-6,9.3-9.1,13.9
	c-0.3,0.5-1.1,0.9-1.7,0.8c-0.4-0.1-0.8-0.9-0.9-1.5c-1.4-10.4-1.7-20.7,0.9-31c3.1-12.5,6-25.1,8.9-37.7c0.2-0.8-0.1-1.8-0.3-2.7
	c-2.1-6.3-2.5-12.6-0.4-18.9c1.1-3.3,2.8-6.2,5.5-8.5c3.4-2.8,7.2-3.8,11.4-2.6c4.6,1.4,7.4,5.4,7.1,11c-0.3,4.1-1.3,8.2-2.3,12.2
	c-1.2,4.9-2.8,9.7-4.2,14.5c-2.4,8.4,4.2,15.6,12.9,14.9c5.5-0.4,9.7-3.3,13.1-7.4c3.8-4.6,6.1-9.9,7.5-15.6
	c2-7.7,2.9-15.4,1.6-23.2c-1.9-11-8.5-18-19-21.3c-8.1-2.6-16.4-2.4-24.6,0.2c-16,5-26.2,20.8-24.4,37.7c0.4,4.2,1.9,8.1,4.7,11.3
	c1.2,1.4,1.7,2.9,1.1,4.8c-0.6,1.9-0.9,3.7-1.4,5.6c-0.7,2.3-2.1,3.1-4.4,2.2c-5.6-2.3-9.6-6.4-11.9-11.8c-6-14.4-4.5-28.2,3.7-41.2
	s20.2-20,35.1-22.8c7.2-1.4,14.4-1.6,21.6-0.4c9.9,1.6,18.7,5.6,25.9,12.6c8.7,8.5,13.4,18.8,13.3,31c-0.1,8.6-1.4,17.1-4.7,25.1
	c-5,12.1-13,21.3-25.9,25.2c-5.7,1.7-11.6,2.3-17.4,0.6c-4.4-1.2-8.2-3.4-11.1-7.1C117,146.5,116.8,146.3,116.4,145.9z"/>
</svg>
